<?xml version="1.0" encoding="UTF-8"?>
<svg width="804.2pt" height="717.3pt" version="1.0" viewBox="-20 -50 1100 990" xmlns="http://www.w3.org/2000/svg">
 <defs>
  <marker id="Arrow1Lstart" overflow="visible" orient="auto">
   <path transform="matrix(.8 0 0 .8 10 0)" d="m0 0 5-5-17.5 5 17.5 5z" fill="#f00" fill-rule="evenodd" stroke="#f00" stroke-width="1pt"/>
  </marker>
 </defs>
 <g fill="#00f0c6" stroke="#00f0c5">
  <g stroke-linecap="round" stroke-linejoin="round" stroke-width="2.872">
   <g transform="matrix(2.437 0 0 2.437 -250.7 -42.25)" clip-path="url(#ID000000)">
    <polyline transform="scale(1.067)" points="247.4 331 247.4 117.1" fill="#00f0c6" stroke="#00f0c5" stroke-linecap="round" stroke-linejoin="round" stroke-width="2.692"/>
   </g>
   <g transform="matrix(2.437 0 0 2.437 -250.7 -42.25)" clip-path="url(#ID000000)">
    <polyline transform="scale(1.067)" points="247.4 331 461.3 331" fill="#00f0c6" stroke="#00f0c5" stroke-linecap="round" stroke-linejoin="round" stroke-width="2.692"/>
   </g>
   <g transform="matrix(2.437 0 0 2.437 -250.7 -42.25)" clip-path="url(#ID000000)">
    <polyline transform="scale(1.067)" points="290.2 331 290.2 117.1" fill="#00f0c6" stroke="#00f0c5" stroke-linecap="round" stroke-linejoin="round" stroke-width="2.692"/>
   </g>
   <g transform="matrix(2.437 0 0 2.437 -250.7 13.45)" clip-path="url(#ID000000)">
    <polyline transform="scale(1.067)" points="247.4 266.8 461.3 266.8" fill="#00f0c6" stroke="#00f0c5" stroke-linecap="round" stroke-linejoin="round" stroke-width="2.692"/>
   </g>
   <g transform="matrix(2.437 0 0 2.437 -250.7 -42.25)" clip-path="url(#ID000000)">
    <polyline transform="scale(1.067)" points="333 331 333 117.1" fill="#00f0c6" stroke="#00f0c5" stroke-linecap="round" stroke-linejoin="round" stroke-width="2.692"/>
   </g>
   <g transform="matrix(2.437 0 0 2.437 -250.7 13.5)" clip-path="url(#ID000000)">
    <polyline transform="scale(1.067)" points="247.4 224 461.3 224" fill="#00f0c6" stroke="#00f0c5" stroke-linecap="round" stroke-linejoin="round" stroke-width="2.692"/>
   </g>
   <g transform="matrix(2.437 0 0 2.437 -250.7 -42.25)" clip-path="url(#ID000000)">
    <polyline transform="scale(1.067)" points="375.8 331 375.8 117.1" fill="#00f0c6" stroke="#00f0c5" stroke-linecap="round" stroke-linejoin="round" stroke-width="2.692"/>
   </g>
   <g transform="matrix(2.437 0 0 2.437 -250.7 -42.09)" clip-path="url(#ID000000)">
    <polyline transform="scale(1.067)" points="247.4 202.6 461.3 202.6" fill="#00f0c6" stroke="#00f0c5" stroke-linecap="round" stroke-linejoin="round" stroke-width="2.692"/>
   </g>
   <g transform="matrix(2.437 0 0 2.437 -250.7 -42.25)" clip-path="url(#ID000000)">
    <polyline transform="scale(1.067)" points="418.5 331 418.5 117.1" fill="#00f0c6" stroke="#00f0c5" stroke-linecap="round" stroke-linejoin="round" stroke-width="2.692"/>
   </g>
   <g transform="matrix(2.437 0 0 2.437 -250.7 -42.3)" clip-path="url(#ID000000)">
    <polyline transform="scale(1.067)" points="247.4 159.9 461.3 159.9" fill="#00f0c6" stroke="#00f0c5" stroke-linecap="round" stroke-linejoin="round" stroke-width="2.692"/>
   </g>
   <g transform="matrix(2.437 0 0 2.437 -250.7 -42.25)" clip-path="url(#ID000000)">
    <polyline transform="scale(1.067)" points="461.3 331 461.3 117.1" fill="#00f0c6" stroke="#00f0c5" stroke-linecap="round" stroke-linejoin="round" stroke-width="2.692"/>
   </g>
   <g transform="matrix(2.437 0 0 2.437 -250.7 -42.25)" clip-path="url(#ID000000)">
    <polyline transform="scale(1.067)" points="247.4 117.1 461.3 117.1" fill="#00f0c6" stroke="#00f0c5" stroke-linecap="round" stroke-linejoin="round" stroke-width="2.692"/>
   </g>
  </g>
  <g transform="matrix(2.437 0 0 2.437 -233.6 -8.19)" clip-path="url(#ID000000)">
   <path d="m391.7 307.4c15.38 10.7 35.78 12.39 53.49 7.355 5.773-1.474 13.35-6.56 9.95-13.43-5.492-10.98-17.1-18.91-18.86-31.71-0.9604-9.422 6.558-16.74 13.13-22.35 10.54-9.609 23.65-16.14 33.31-26.74 3.041-6.583-7.17-7.613-11.63-7.455-20.48-0.9187-40.97 3.437-60.08 10.61-14.65 5.647-28.9 15.63-34.5 30.9-7.035 18.43-0.9622 41.16 15.19 52.82z" fill="#00f0c6" stroke="#00f0c5" stroke-width="1.067pt"/>
  </g>
 </g>
 <g fill="#00c745">
  <g transform="matrix(2.437 0 0 2.437 -213.5 -42.85)" clip-path="url(#ID000000)">
   <path d="m346.8 234.2c18.19-9.975 29.88-29.88 31.46-50.37-0.2537-8.601-10.53-10.87-17.16-8.009-10.07 1.835-21.49 5.611-30.95-0.255-9.164-6.841-10.42-19.07-12.78-29.42-1.917-10.8-2.703-21.92-6.608-32.26-6.393-5.385-11.37 4.731-13.6 9.606-11.28 22.51-17.94 47.89-16.18 73.17 1.785 15.75 11.15 31.1 26.01 37.54 12.37 5.857 27.51 6.344 39.8-3e-3z" fill="#00c745"/>
  </g>
  <g stroke="#00c745" stroke-linejoin="round" stroke-width="2.872">
   <g transform="matrix(2.437 0 0 2.437 -250.7 -42.25)" clip-path="url(#ID000000)" stroke-linecap="round">
    <polyline transform="scale(1.067)" points="308.9 345.8 118.3 248.6" fill="#00c745" stroke="#00c745" stroke-linecap="round" stroke-linejoin="round" stroke-width="2.692"/>
   </g>
   <g transform="matrix(2.437 0 0 2.437 -250.7 -42.25)" clip-path="url(#ID000000)">
    <polyline transform="scale(1.067)" points="308.9 345.8 406 155.2" fill="#00c745" stroke="#00c745" stroke-linejoin="round" stroke-width="2.692"/>
   </g>
   <g transform="matrix(2.437 0 0 2.437 -250.7 -42.25)" clip-path="url(#ID000000)">
    <polyline transform="scale(1.067)" points="328.3 307.6 137.7 210.5" fill="#00c745" stroke="#00c745" stroke-linejoin="round" stroke-width="2.692"/>
   </g>
   <g transform="matrix(2.437 0 0 2.437 -250.7 -42.25)" clip-path="url(#ID000000)">
    <polyline transform="scale(1.067)" points="270.8 326.3 367.9 135.7" fill="#00c745" stroke="#00c745" stroke-linejoin="round" stroke-width="2.692"/>
   </g>
   <g transform="matrix(2.437 0 0 2.437 -250.7 -42.25)" clip-path="url(#ID000000)">
    <polyline transform="scale(1.067)" points="347.7 269.5 157.1 172.4" fill="#00c745" stroke="#00c745" stroke-linejoin="round" stroke-width="2.692"/>
   </g>
   <g transform="matrix(2.437 0 0 2.437 -250.7 -42.25)" clip-path="url(#ID000000)">
    <polyline transform="scale(1.067)" points="232.6 306.9 329.8 116.3" fill="#00c745" stroke="#00c745" stroke-linejoin="round" stroke-width="2.692"/>
   </g>
   <g transform="matrix(2.437 0 0 2.437 -250.7 -42.25)" clip-path="url(#ID000000)">
    <polyline transform="scale(1.067)" points="367.2 231.4 176.5 134.3" fill="#00c745" stroke="#00c745" stroke-linejoin="round" stroke-width="2.692"/>
   </g>
   <g transform="matrix(2.437 0 0 2.437 -250.7 -42.25)" clip-path="url(#ID000000)">
    <polyline transform="scale(1.067)" points="194.5 287.5 291.6 96.88" fill="#00c745" stroke="#00c745" stroke-linejoin="round" stroke-width="2.692"/>
   </g>
   <g transform="matrix(2.437 0 0 2.437 -250.7 -42.25)" clip-path="url(#ID000000)">
    <polyline transform="scale(1.067)" points="386.6 193.3 196 96.15" fill="#00c745" stroke="#00c745" stroke-linejoin="round" stroke-width="2.692"/>
   </g>
   <g transform="matrix(2.437 0 0 2.437 -250.7 -42.25)" clip-path="url(#ID000000)">
    <polyline transform="scale(1.067)" points="156.4 268.1 253.5 77.45" fill="#00c745" stroke="#00c745" stroke-linejoin="round" stroke-width="2.692"/>
   </g>
   <g transform="matrix(2.437 0 0 2.437 -250.7 -42.25)" clip-path="url(#ID000000)" stroke-linecap="round">
    <polyline transform="scale(1.067)" points="406 155.2 215.4 58.03" fill="#00c745" stroke="#00c745" stroke-linecap="round" stroke-linejoin="round" stroke-width="2.692"/>
   </g>
   <g transform="matrix(2.437 0 0 2.437 -250.7 -42.25)" clip-path="url(#ID000000)">
    <polyline transform="scale(1.067)" points="118.3 248.6 215.4 58.03" fill="#00c745" stroke="#00c745" stroke-linejoin="round" stroke-width="2.692"/>
   </g>
  </g>
 </g>
 <g transform="matrix(2.437 0 0 2.437 -400 -81.85)" clip-path="url(#ID000000)">
  <polyline transform="scale(1.067)" points="247.4 31.5" fill="none" stroke="#fcfcfc" stroke-width=".5pt"/>
 </g>
 <g transform="matrix(2.437 0 0 2.437 -400 -81.85)" clip-path="url(#ID000000)">
  <polyline transform="scale(1.067)" points="247.4 373.8" fill="none" stroke="#fcfcfc" stroke-width=".5pt"/>
 </g>
 <path d="m317.3 106.1a632.5 627.7 0 0 1 631.2 156" fill="none" marker-start="url(#Arrow1Lstart)" stroke="#f00" stroke-linecap="round" stroke-linejoin="round" stroke-miterlimit="2" stroke-width="4" style="paint-order:stroke markers fill"/>
 <circle transform="scale(-1)" cx="-503.6" cy="-707.3" r="10.31" fill="#f00" fill-rule="evenodd" style="paint-order:stroke markers fill"/>
 <path d="m948.8 262.2-444.9 444.9-192.4-597.4" fill="none" stroke="#f00" stroke-dashoffset="17.6" stroke-linecap="round" stroke-linejoin="round" stroke-miterlimit="2" stroke-width="3" style="paint-order:stroke markers fill"/>
 <path d="m478.4 627.8a85.68 78.03 0 0 1 85.5 19.39" fill="none" stroke="#f00" stroke-linecap="round" stroke-linejoin="round" stroke-miterlimit="2" stroke-width="3" style="paint-order:stroke markers fill"/>
 <g fill="#f00" fill-rule="evenodd">
  <g stroke-dashoffset="17.6" stroke-linecap="round" stroke-linejoin="round" stroke-miterlimit="2" stroke-width="3">
   <g style="font-feature-settings:normal;font-variant-caps:normal;font-variant-ligatures:normal;font-variant-numeric:normal;paint-order:stroke markers fill" aria-label="α">
    <path d="m537.2 560.9h7.667q-2.917 9.167-5.375 22.12 2.917 16.08 5.375 22.12h-7.458q-1.792-4.167-2.708-8.083-3.458 9.083-14.46 9.083-8.333 0-13.42-6.25t-5.083-16.96q0-11 5.083-17 5.125-6.042 13.54-6.042 5.208 0 8.5 2.125 3.292 2.083 6.125 6.375 0.2917-1.458 2.208-7.5zm-15.58 5.208q-5.375 0-8.5 4.333-3.125 4.333-3.125 12.5 0 7.958 2.958 12.5 2.958 4.542 8.25 4.542 5.167 0 8.625-4.458 3.458-4.5 3.458-12.92 0-8.167-3.25-12.33-3.208-4.167-8.417-4.167z" fill="#f00"/>
   </g>
   <g style="font-feature-settings:normal;font-variant-caps:normal;font-variant-ligatures:normal;font-variant-numeric:normal;paint-order:stroke markers fill" aria-label="P">
    <path d="m970.9 248.6v-61.08h23.04q6.083 0 9.292 0.5833 4.5 0.75 7.542 2.875 3.042 2.083 4.875 5.875 1.875 3.792 1.875 8.333 0 7.792-4.958 13.21-4.958 5.375-17.92 5.375h-15.67v24.83zm8.083-32.04h15.79q7.833 0 11.12-2.917 3.292-2.917 3.292-8.208 0-3.833-1.958-6.542-1.917-2.75-5.083-3.625-2.042-0.5417-7.542-0.5417h-15.62z"/>
   </g>
   <g style="font-feature-settings:normal;font-variant-caps:normal;font-variant-ligatures:normal;font-variant-numeric:normal;paint-order:stroke markers fill" aria-label="P1">
    <path d="m214.5 87.15v-61.08h23.04q6.083 0 9.292 0.5833 4.5 0.75 7.542 2.875 3.042 2.083 4.875 5.875 1.875 3.792 1.875 8.333 0 7.792-4.958 13.21-4.958 5.375-17.92 5.375h-15.67v24.83zm8.083-32.04h15.79q7.833 0 11.12-2.917 3.292-2.917 3.292-8.208 0-3.833-1.958-6.542-1.917-2.75-5.083-3.625-2.042-0.5417-7.542-0.5417h-15.62z"/>
    <path d="m285.6 104.2h-4.875v-31.06q-1.76 1.679-4.631 3.358-2.844 1.679-5.119 2.519v-4.712q4.09-1.923 7.15-4.658 3.06-2.735 4.333-5.308h3.142z" baseline-shift="sub"/>
   </g>
  </g>
  <circle transform="scale(-1)" cx="-948.5" cy="-262.1" r="10.31" style="paint-order:stroke markers fill"/>
  <circle transform="scale(-1)" cx="-309.4" cy="-108.6" r="10.31" style="paint-order:stroke markers fill"/>
  <g stroke-dashoffset="17.6" stroke-linecap="round" stroke-linejoin="round" stroke-miterlimit="2" style="font-feature-settings:normal;font-variant-caps:normal;font-variant-ligatures:normal;font-variant-numeric:normal;paint-order:stroke markers fill" aria-label="O">
   <path d="m416.8 730.6q0-15.74 8.454-24.63 8.454-8.928 21.82-8.928 8.755 0 15.79 4.184t10.7 11.69q3.709 7.462 3.709 16.95 0 9.618-3.882 17.21-3.882 7.591-11 11.52-7.117 3.882-15.35 3.882-8.928 0-15.96-4.313t-10.65-11.77q-3.623-7.462-3.623-15.79zm8.626 0.1294q0 11.43 6.125 18.03 6.168 6.556 15.44 6.556 9.446 0 15.53-6.642 6.125-6.642 6.125-18.85 0-7.72-2.631-13.46-2.588-5.779-7.634-8.928-5.003-3.192-11.26-3.192-8.885 0-15.31 6.125-6.383 6.081-6.383 20.36z" fill="#f00"/>
  </g>
 </g>
</svg>